<svg width="17" height="16" viewBox="0 0 17 16" fill="none" xmlns="http://www.w3.org/2000/svg">
<g id="bi:credit-card-2-front-fill" clip-path="url(#clip0_5_353)">
<g id="Group">
<path id="Vector" fill-rule="evenodd" clip-rule="evenodd" d="M0.0758057 4C0.0758057 3.46957 0.287999 2.96086 0.665706 2.58579C1.04341 2.21071 1.55569 2 2.08985 2H14.1741C14.7083 2 15.2206 2.21071 15.5983 2.58579C15.976 2.96086 16.1882 3.46957 16.1882 4V12C16.1882 12.5304 15.976 13.0391 15.5983 13.4142C15.2206 13.7893 14.7083 14 14.1741 14H2.08985C1.55569 14 1.04341 13.7893 0.665706 13.4142C0.287999 13.0391 0.0758057 12.5304 0.0758057 12V4ZM2.59336 5C2.45982 5 2.33175 5.05268 2.23733 5.14645C2.1429 5.24021 2.08985 5.36739 2.08985 5.5V6.5C2.08985 6.63261 2.1429 6.75979 2.23733 6.85355C2.33175 6.94732 2.45982 7 2.59336 7H4.60741C4.74095 7 4.86902 6.94732 4.96344 6.85355C5.05787 6.75979 5.11092 6.63261 5.11092 6.5V5.5C5.11092 5.36739 5.05787 5.24021 4.96344 5.14645C4.86902 5.05268 4.74095 5 4.60741 5H2.59336ZM2.59336 8C2.45982 8 2.33175 8.05268 2.23733 8.14645C2.1429 8.24021 2.08985 8.36739 2.08985 8.5C2.08985 8.63261 2.1429 8.75979 2.23733 8.85355C2.33175 8.94732 2.45982 9 2.59336 9H7.62847C7.76201 9 7.89008 8.94732 7.98451 8.85355C8.07894 8.75979 8.13199 8.63261 8.13199 8.5C8.13199 8.36739 8.07894 8.24021 7.98451 8.14645C7.89008 8.05268 7.76201 8 7.62847 8H2.59336ZM2.59336 10C2.45982 10 2.33175 10.0527 2.23733 10.1464C2.1429 10.2402 2.08985 10.3674 2.08985 10.5C2.08985 10.6326 2.1429 10.7598 2.23733 10.8536C2.33175 10.9473 2.45982 11 2.59336 11H3.60038C3.73392 11 3.86199 10.9473 3.95642 10.8536C4.05085 10.7598 4.1039 10.6326 4.1039 10.5C4.1039 10.3674 4.05085 10.2402 3.95642 10.1464C3.86199 10.0527 3.73392 10 3.60038 10H2.59336ZM5.61443 10C5.48089 10 5.35282 10.0527 5.25839 10.1464C5.16397 10.2402 5.11092 10.3674 5.11092 10.5C5.11092 10.6326 5.16397 10.7598 5.25839 10.8536C5.35282 10.9473 5.48089 11 5.61443 11H6.62145C6.75499 11 6.88306 10.9473 6.97749 10.8536C7.07191 10.7598 7.12496 10.6326 7.12496 10.5C7.12496 10.3674 7.07191 10.2402 6.97749 10.1464C6.88306 10.0527 6.75499 10 6.62145 10H5.61443ZM8.6355 10C8.50196 10 8.37389 10.0527 8.27946 10.1464C8.18503 10.2402 8.13199 10.3674 8.13199 10.5C8.13199 10.6326 8.18503 10.7598 8.27946 10.8536C8.37389 10.9473 8.50196 11 8.6355 11H9.64252C9.77606 11 9.90413 10.9473 9.99856 10.8536C10.093 10.7598 10.146 10.6326 10.146 10.5C10.146 10.3674 10.093 10.2402 9.99856 10.1464C9.90413 10.0527 9.77606 10 9.64252 10H8.6355ZM11.6566 10C11.523 10 11.395 10.0527 11.3005 10.1464C11.2061 10.2402 11.1531 10.3674 11.1531 10.5C11.1531 10.6326 11.2061 10.7598 11.3005 10.8536C11.395 10.9473 11.523 11 11.6566 11H12.6636C12.7971 11 12.9252 10.9473 13.0196 10.8536C13.114 10.7598 13.1671 10.6326 13.1671 10.5C13.1671 10.3674 13.114 10.2402 13.0196 10.1464C12.9252 10.0527 12.7971 10 12.6636 10H11.6566Z" fill="#ECECEC"/>
</g>
</g>
<defs>
<clipPath id="clip0_5_353">
<rect width="16.1124" height="16" fill="white" transform="translate(0.0758057)"/>
</clipPath>
</defs>
</svg>
